<?xml version="1.0" encoding="iso-8859-1"?>
<!-- Generator: Adobe Illustrator 19.0.0, SVG Export Plug-In . SVG Version: 6.00 Build 0)  -->
<svg version="1.1" id="Layer_1" xmlns="http://www.w3.org/2000/svg" xmlns:xlink="http://www.w3.org/1999/xlink" x="0px" y="0px"
	 viewBox="0 0 297.001 297.001" style="enable-background:new 0 0 297.001 297.001;" xml:space="preserve">
<g>
	<g>
		<g>
			<path style="fill:current;" d="M205.577,57.078H91.423C41.012,57.078,0,98.089,0,148.501s41.012,91.423,91.423,91.423h114.155
				c50.411,0,91.423-41.012,91.423-91.423S255.988,57.078,205.577,57.078z M205.577,220.157H91.423
				c-39.511,0-71.656-32.145-71.656-71.656s32.145-71.656,71.656-71.656h114.155c39.511,0,71.656,32.145,71.656,71.656
				S245.088,220.157,205.577,220.157z"/>
			<path d="M91.423,89.693c-32.426,0-58.807,26.381-58.807,58.807c0,32.426,26.381,58.807,58.807,58.807
				c32.426,0,58.807-26.381,58.807-58.807S123.849,89.693,91.423,89.693z M91.423,187.54c-21.527,0-39.04-17.513-39.04-39.04
				s17.513-39.04,39.04-39.04c21.527,0,39.04,17.513,39.04,39.04S112.949,187.54,91.423,187.54z"/>
		</g>
	</g>
</g>
<g>
</g>
<g>
</g>
<g>
</g>
<g>
</g>
<g>
</g>
<g>
</g>
<g>
</g>
<g>
</g>
<g>
</g>
<g>
</g>
<g>
</g>
<g>
</g>
<g>
</g>
<g>
</g>
<g>
</g>
</svg>
